<?xml version="1.0" encoding="utf-8"?>
<!-- Generator: Adobe Illustrator 16.0.0, SVG Export Plug-In . SVG Version: 6.00 Build 0)  -->
<!DOCTYPE svg PUBLIC "-//W3C//DTD SVG 1.1//EN" "http://www.w3.org/Graphics/SVG/1.1/DTD/svg11.dtd">
<svg version="1.1" id="Layer_1" xmlns="http://www.w3.org/2000/svg" xmlns:xlink="http://www.w3.org/1999/xlink" x="0px" y="0px"
	 width="110px" height="110px" viewBox="0 0 110 110" enable-background="new 0 0 110 110" xml:space="preserve">
<g id="Layer_1_1_">
	<g>
		<polygon points="37,24.876 81.434,54.627 37,84.377 		"/>
	</g>
	<g>
		<rect x="182" y="31" width="18" height="49"/>
		<rect x="156" y="31" width="18" height="49"/>
	</g>
	<g>
		<path d="M344.823,58l-15.867-22.311L313.09,58h10.258c-1.088,12.213-11.969,23.086-25.192,23.086
			c-13.946,0-25.368-11.445-25.368-25.393C272.786,41.748,284,30.3,298,30.3V17.804c-21,0-37.71,16.952-37.71,37.788
			c0,20.835,16.989,37.99,37.825,37.992c20.139,0,36.679-16.427,37.765-35.584H344.823z"/>
	</g>
</g>
</svg>
