<?xml version="1.0" encoding="utf-8"?>
<!-- Generator: Adobe Illustrator 16.0.0, SVG Export Plug-In . SVG Version: 6.00 Build 0)  -->
<!DOCTYPE svg PUBLIC "-//W3C//DTD SVG 1.1//EN" "http://www.w3.org/Graphics/SVG/1.1/DTD/svg11.dtd">
<svg version="1.1" xmlns="http://www.w3.org/2000/svg" xmlns:xlink="http://www.w3.org/1999/xlink" x="0px" y="0px" width="1280px"
	 height="800px" viewBox="0 0 1280 800" enable-background="new 0 0 1280 800" xml:space="preserve">
<g id="Layer_2">
	<path fill="#F2F2F2" stroke="#FFFFFF" stroke-miterlimit="10" d="M591.5,453.5c0,5.522-4.477,10-10,10h-89c-5.523,0-10-4.478-10-10
		v-89c0-5.522,4.477-10,10-10h89c5.523,0,10,4.478,10,10V453.5z"/>
	<path fill="#F2F2F2" stroke="#FFFFFF" stroke-miterlimit="10" d="M714.5,453.5c0,5.522-4.477,10-10,10h-89c-5.523,0-10-4.478-10-10
		v-89c0-5.522,4.477-10,10-10h89c5.523,0,10,4.478,10,10V453.5z"/>
	<path fill="#F2F2F2" stroke="#FFFFFF" stroke-miterlimit="10" d="M714.5,453.5c0,5.522-4.477,10-10,10h-89c-5.523,0-10-4.478-10-10
		v-89c0-5.522,4.477-10,10-10h89c5.523,0,10,4.478,10,10V453.5z"/>
	<path fill="#F2F2F2" stroke="#FFFFFF" stroke-miterlimit="10" d="M837.5,453.5c0,5.522-4.477,10-10,10h-89c-5.523,0-10-4.478-10-10
		v-89c0-5.522,4.477-10,10-10h89c5.523,0,10,4.478,10,10V453.5z"/>
</g>
<g id="Layer_1">
	<g>
		<polygon points="519,378.876 563.433,408.627 519,438.377 		"/>
	</g>
	<g>
		<rect x="664" y="385" width="18" height="49"/>
		<rect x="638" y="385" width="18" height="49"/>
	</g>
	<g>
		<path d="M826.823,412l-15.867-22.311L795.09,412h10.258c-1.088,12.213-11.969,23.086-25.193,23.086
			c-13.946,0-25.368-11.446-25.368-25.393C754.786,395.748,766,384.3,780,384.3v-12.496c-21,0-37.71,16.952-37.71,37.788
			c0,20.835,16.989,37.99,37.825,37.992c20.139,0,36.679-16.427,37.765-35.584H826.823z"/>
	</g>
</g>
</svg>
